<svg width="48" height="48" viewBox="0 0 48 48" fill="none" xmlns="http://www.w3.org/2000/svg">
<path d="M39 34C38.72 34 38.48 34 38.22 34.08L35 27.6C35.9 26.7 36.5 25.42 36.5 24C36.5 21.24 34.26 19 31.5 19C31.22 19 31 19 30.7 19.08L27.48 12.6C28.42 11.68 29 10.42 29 9C29 6.24 26.76 4 24 4C21.24 4 19 6.24 19 9C19 10.4 19.58 11.68 20.52 12.58L17.3 19.08C17 19 16.78 19 16.5 19C13.74 19 11.5 21.24 11.5 24C11.5 25.42 12.08 26.68 13 27.58L9.78 34.08C9.52 34 9.28 34 9 34C6.24 34 4 36.24 4 39C4 41.76 6.24 44 9 44C11.76 44 14 41.76 14 39C14 37.6 13.42 36.32 12.48 35.42L15.72 28.92C16 29 16.24 29 16.5 29C16.76 29 17 29 17.26 28.92L20.52 35.42C19.58 36.32 19 37.6 19 39C19 41.76 21.24 44 24 44C26.76 44 29 41.76 29 39C29 36.24 26.76 34 24 34C23.74 34 23.48 34 23.22 34.08L20 27.6C20.9 26.7 21.5 25.42 21.5 24C21.5 22.6 20.92 21.34 20 20.42L23.22 13.92C23.48 14 23.74 14 24 14C24.26 14 24.52 14 24.78 13.92L28 20.42C27.08 21.32 26.5 22.6 26.5 24C26.5 26.76 28.74 29 31.5 29C31.76 29 32 29 32.26 28.92L35.52 35.42C34.58 36.32 34 37.6 34 39C34 41.76 36.24 44 39 44C41.76 44 44 41.76 44 39C44 36.24 41.76 34 39 34ZM9 41C7.9 41 7 40.1 7 39C7 37.9 7.9 37 9 37C10.1 37 11 37.9 11 39C11 40.1 10.1 41 9 41ZM26 39C26 40.1 25.1 41 24 41C22.9 41 22 40.1 22 39C22 37.9 22.9 37 24 37C25.1 37 26 37.9 26 39ZM14.5 24C14.5 22.9 15.4 22 16.5 22C17.6 22 18.5 22.9 18.5 24C18.5 25.1 17.6 26 16.5 26C15.4 26 14.5 25.1 14.5 24ZM22 9C22 7.9 22.9 7 24 7C25.1 7 26 7.9 26 9C26 10.1 25.1 11 24 11C22.9 11 22 10.1 22 9ZM29.5 24C29.5 22.9 30.4 22 31.5 22C32.6 22 33.5 22.9 33.5 24C33.5 25.1 32.6 26 31.5 26C30.4 26 29.5 25.1 29.5 24ZM39 41C37.9 41 37 40.1 37 39C37 37.9 37.9 37 39 37C40.1 37 41 37.9 41 39C41 40.1 40.1 41 39 41Z" fill="#338BFF"/>
</svg>
