<svg width="628" height="628" viewBox="0 0 628 628" fill="none" xmlns="http://www.w3.org/2000/svg">
<path d="M565.075 500.504H523.477V500.818H565.075V500.504Z" fill="#EBEBEB"/>
<path d="M416.012 503.92H405.098V504.234H416.012V503.92Z" fill="#EBEBEB"/>
<path d="M522.22 488.848H498.117V489.162H522.22V488.848Z" fill="#EBEBEB"/>
<path d="M120.137 490.958H65.8906V491.272H120.137V490.958Z" fill="#EBEBEB"/>
<path d="M139.279 490.958H131.328V491.272H139.279V490.958Z" fill="#EBEBEB"/>
<path d="M282.787 496.258H165.125V496.572H282.787V496.258Z" fill="#EBEBEB"/>
<path d="M297.672 424.277H55.1639C53.2619 424.277 51.4377 423.521 50.0927 422.176C48.7478 420.831 47.9922 419.007 47.9922 417.105V76.189C48.0087 74.2979 48.7716 72.4898 50.1148 71.1584C51.458 69.827 53.2727 69.08 55.1639 69.0801H297.672C299.575 69.0801 301.399 69.8357 302.744 71.1806C304.089 72.5256 304.844 74.3498 304.844 76.2518V417.105C304.844 419.007 304.089 420.831 302.744 422.176C301.399 423.521 299.575 424.277 297.672 424.277ZM55.1639 69.3313C53.3462 69.3346 51.6038 70.0582 50.3184 71.3435C49.0331 72.6289 48.3095 74.3713 48.3062 76.189V417.105C48.3095 418.923 49.0331 420.665 50.3184 421.951C51.6038 423.236 53.3462 423.96 55.1639 423.963H297.672C299.49 423.96 301.233 423.236 302.518 421.951C303.803 420.665 304.527 418.923 304.53 417.105V76.189C304.527 74.3713 303.803 72.6289 302.518 71.3435C301.233 70.0582 299.49 69.3346 297.672 69.3313H55.1639Z" fill="#EBEBEB"/>
<path d="M569.358 424.277H326.824C324.923 424.274 323.101 423.517 321.757 422.173C320.412 420.828 319.656 419.006 319.652 417.105V76.189C319.672 74.2989 320.436 72.4927 321.779 71.162C323.121 69.8313 324.934 69.0833 326.824 69.0801H569.358C571.245 69.0866 573.053 69.8365 574.391 71.1672C575.728 72.4979 576.488 74.3022 576.504 76.189V417.105C576.504 419.003 575.752 420.823 574.413 422.167C573.073 423.512 571.255 424.27 569.358 424.277ZM326.824 69.3313C325.006 69.3346 323.264 70.0582 321.979 71.3435C320.693 72.6289 319.97 74.3713 319.966 76.189V417.105C319.97 418.923 320.693 420.665 321.979 421.951C323.264 423.236 325.006 423.96 326.824 423.963H569.358C571.175 423.96 572.918 423.236 574.203 421.951C575.489 420.665 576.212 418.923 576.215 417.105V76.189C576.212 74.3713 575.489 72.6289 574.203 71.3435C572.918 70.0582 571.175 69.3346 569.358 69.3313H326.824Z" fill="#EBEBEB"/>
<path d="M628 480.295H0V480.609H628V480.295Z" fill="#EBEBEB"/>
<path d="M241.615 119.76H89.8906V479.893H241.615V119.76Z" fill="#EBEBEB"/>
<path d="M235.162 126.278H96.3359V479.893H235.162V126.278Z" fill="#F5F5F5"/>
<path d="M162.501 172.926H106.848V302.432H162.501V172.926Z" fill="#FAFAFA"/>
<path d="M225.403 172.926H169.75V302.432H225.403V172.926Z" fill="#FAFAFA"/>
<path d="M225.402 341.607H106.848V471.114H225.402V341.607Z" fill="#FAFAFA"/>
<path d="M128.551 135.648H203.698C209.454 135.648 214.974 137.935 219.045 142.005C223.115 146.076 225.402 151.596 225.402 157.352V166.207H106.848V157.377C106.844 154.525 107.403 151.7 108.493 149.064C109.582 146.428 111.18 144.032 113.196 142.014C115.211 139.996 117.605 138.395 120.24 137.303C122.875 136.211 125.699 135.648 128.551 135.648Z" fill="#FAFAFA"/>
<path d="M116.971 308.26H106.848V334.636H116.971V308.26Z" fill="#E6E6E6"/>
<path d="M116.973 334.648H118.957V308.272H116.973V334.648Z" fill="#E0E0E0"/>
<path d="M113.619 318.622C113.621 319.467 113.373 320.294 112.905 320.998C112.438 321.702 111.772 322.251 110.991 322.576C110.211 322.902 109.352 322.988 108.523 322.825C107.694 322.661 106.932 322.255 106.333 321.659C105.735 321.062 105.327 320.301 105.161 319.472C104.995 318.644 105.079 317.784 105.402 317.003C105.725 316.222 106.272 315.555 106.975 315.085C107.677 314.615 108.503 314.364 109.349 314.364C110.479 314.364 111.563 314.812 112.364 315.611C113.164 316.409 113.616 317.492 113.619 318.622Z" fill="#E0E0E0"/>
<path d="M112.8 326.008H110.602V331.346H112.8V326.008Z" fill="#E0E0E0"/>
<path d="M105.591 324.588C108.886 324.588 111.557 321.917 111.557 318.622C111.557 315.327 108.886 312.656 105.591 312.656C102.296 312.656 99.625 315.327 99.625 318.622C99.625 321.917 102.296 324.588 105.591 324.588Z" fill="#EBEBEB"/>
<path d="M475.131 377.027C475.131 377.027 492.464 360.699 492.175 349.96C491.886 339.221 481.348 364.379 481.097 359.091C480.846 353.803 493.079 338.618 493.594 328.244C494.109 317.869 481.147 346.857 480.457 342.06C479.766 337.262 492.326 315.621 492.225 308.085C492.125 300.549 481.248 327.188 479.665 322.479C478.083 317.769 488.721 300.159 485.945 286.984C483.169 273.809 477.442 308.336 476.563 303.99C475.684 299.644 483.044 277.074 477.819 268.081C472.594 259.088 474.051 292.435 472.305 288.554C470.559 284.673 469.454 265.557 462.835 259.051C456.216 252.544 464.581 278.305 462.546 279.611C460.511 280.917 451.066 261.726 448.516 265.368C445.967 269.011 461.943 289.622 462.094 294.545C462.245 299.469 449.207 286.318 448.039 291.656C446.871 296.994 466.188 305.397 467.181 310.496C468.173 315.596 451.104 306.465 451.179 311.752C451.255 317.04 467.419 319.841 468.386 325.819C469.354 331.798 452.548 321.486 453.478 328.507C454.407 335.528 465.699 334.147 466.992 341.067C468.286 347.988 455.311 340.1 455.801 346.669C456.291 353.238 469.253 353.966 470.609 358.978C471.966 363.989 458.238 356.642 458.615 361.967C458.992 367.293 472.431 367.895 475.131 377.027Z" fill="#E0E0E0"/>
<path d="M473.699 400.262C476.01 388.171 477.229 375.896 477.341 363.587C477.994 336.847 474.628 309.88 465.723 284.597C465.07 282.751 462.068 283.416 462.721 285.275C471.513 310.395 474.904 336.985 474.264 363.486C474.176 375.541 473.003 387.563 470.76 399.408C470.37 401.33 473.272 402.259 473.699 400.325V400.262Z" fill="#F0F0F0"/>
<path d="M480.205 382.552C480.205 382.552 468.16 359.492 472.003 343.867C475.846 328.243 478.66 364.616 480.456 355.912C482.252 347.208 474.766 330.328 481.737 317.768C488.708 305.208 482.252 341.33 486.861 333.392C491.471 325.454 486.07 305.208 492.501 297.496C498.932 289.784 494.548 314.15 497.613 310.307C500.677 306.464 499.924 288.541 504.797 284.433C509.67 280.326 505.3 301.603 507.862 297.496C510.424 293.389 516.315 274.699 524.516 272.376C532.718 270.052 519.141 283.893 524.516 282.612C529.892 281.331 542.188 278.518 543.218 284.157C544.248 289.797 517.345 295.938 514.267 302.859C511.19 309.78 526.564 297.471 529.339 302.595C532.115 307.72 505.764 314.891 503.717 322.578C501.67 330.265 525.496 316.173 524.981 324.123C524.466 332.074 497.563 333.593 496.281 340.514C495 347.434 518.324 332.827 517.546 339.748C516.767 346.668 493.468 352.044 491.936 359.467C490.403 366.89 509.093 352.559 509.608 358.45C510.123 364.34 480.205 382.552 480.205 382.552Z" fill="#EBEBEB"/>
<path d="M463.176 381.824C463.176 381.824 474.832 361.037 471.353 350.889C467.873 340.74 465.336 368.008 463.465 362.984C461.593 357.96 468.778 339.874 466.165 329.826C463.553 319.778 459.885 351.303 457.738 346.857C455.59 342.411 461.166 318.095 458.818 310.936C456.469 303.776 454.045 332.451 451.118 328.419C448.192 324.387 453.09 304.417 446.547 292.648C440.003 280.879 444.826 315.608 442.678 311.689C440.53 307.77 440.819 284.057 433.158 277.049C425.496 270.04 436.926 301.402 434.024 298.225C431.123 295.047 424.416 277.137 416.151 272.904C407.887 268.671 423.574 290.764 422.03 292.61C420.485 294.457 405.701 278.983 404.383 283.216C403.064 287.448 424.479 302.344 426.061 307.004C427.644 311.664 411.303 302.998 411.781 308.449C412.258 313.9 433.22 316.135 435.645 320.707C438.069 325.279 419.103 321.674 420.748 326.673C422.394 331.672 438.659 329.537 441.372 334.95C444.085 340.364 424.969 335.553 427.945 341.971C430.922 348.389 441.297 343.705 444.6 349.922C447.903 356.139 433.17 352.434 435.607 358.613C438.043 364.793 450.616 361.552 453.404 365.936C456.193 370.319 440.844 367.393 442.854 372.366C444.864 377.34 457.876 373.962 463.176 381.824Z" fill="#EBEBEB"/>
<path d="M468.764 404.432C467.332 392.203 464.81 380.127 461.228 368.347C453.843 342.637 442.577 317.906 426.512 296.428C425.344 294.871 422.669 296.428 423.862 297.986C439.776 319.262 450.954 343.679 458.264 369.163C461.783 380.675 464.267 392.478 465.687 404.432C465.876 406.379 468.953 406.391 468.764 404.432Z" fill="#F0F0F0"/>
<path d="M479.69 401.506C480.172 390.807 481.431 380.157 483.458 369.641C487.15 349.332 493.041 328.582 504.395 311.137C510.864 301.177 519.342 292.648 530.181 287.562C531.977 286.72 530.42 284.07 528.636 284.899C509.243 294.017 497.625 313.423 490.253 332.74C483.408 350.726 479.614 369.88 477.605 388.984C477.165 393.141 476.776 397.323 476.638 401.544C476.575 403.528 479.64 403.515 479.715 401.544L479.69 401.506Z" fill="#F5F5F5"/>
<path d="M504.786 395.54H441.258L448.43 463.502V479.893H497.615V463.502L504.786 395.54Z" fill="#EBEBEB"/>
<path d="M519.33 186.528H473.699V222.5H519.33V186.528Z" fill="#F0F0F0"/>
<path d="M521.794 186.528H519.332V222.5H521.794V186.528Z" fill="#E0E0E0"/>
<path d="M514.683 190.196H478.359V218.833H514.683V190.196Z" fill="#FAFAFA"/>
<path d="M511.693 192.558H481.348V216.484H511.693V192.558Z" fill="#EBEBEB"/>
<path d="M464.294 128.149H414.066V191.841H464.294V128.149Z" fill="#EBEBEB"/>
<path d="M466.692 128.149H464.293V191.841H466.692V128.149Z" fill="#E0E0E0"/>
<path d="M459.17 134.644H419.191V185.348H459.17V134.644Z" fill="#F5F5F5"/>
<path d="M455.878 138.826H422.48V181.191H455.878V138.826Z" fill="#FAFAFA"/>
<path d="M445.791 153.773C445.791 153.773 439.888 162.125 436.849 161.987C434.073 161.861 429.312 153.773 429.312 153.773C429.312 153.773 435.216 145.42 438.255 145.558C441.069 145.696 445.791 153.773 445.791 153.773Z" fill="#EBEBEB"/>
<path d="M430.345 172.26C428.599 168.894 437.717 161.823 441.51 161.986C444.99 162.137 452.237 169.057 450.88 172.26C448.896 176.995 432.706 176.82 430.345 172.26Z" fill="#F0F0F0"/>
<path d="M505.362 167.55C517.883 167.55 528.033 153.396 528.033 135.937C528.033 118.477 517.883 104.323 505.362 104.323C492.841 104.323 482.691 118.477 482.691 135.937C482.691 153.396 492.841 167.55 505.362 167.55Z" fill="#E0E0E0"/>
<path d="M502.663 167.55C515.184 167.55 525.334 153.396 525.334 135.937C525.334 118.477 515.184 104.323 502.663 104.323C490.142 104.323 479.992 118.477 479.992 135.937C479.992 153.396 490.142 167.55 502.663 167.55Z" fill="#EBEBEB"/>
<path d="M502.665 162.866C513.334 162.866 521.982 150.81 521.982 135.937C521.982 121.065 513.334 109.009 502.665 109.009C491.996 109.009 483.348 121.065 483.348 135.937C483.348 150.81 491.996 162.866 502.665 162.866Z" fill="#E6E6E6"/>
<path d="M502.664 160.002C512.195 160.002 519.921 149.228 519.921 135.937C519.921 122.646 512.195 111.872 502.664 111.872C493.133 111.872 485.406 122.646 485.406 135.937C485.406 149.228 493.133 160.002 502.664 160.002Z" fill="#FAFAFA"/>
<path d="M497.252 149.012C495.46 147.295 494.057 145.214 493.139 142.908C492.22 140.603 491.807 138.127 491.927 135.648C491.927 135.648 499.048 134.819 498.835 146.751C498.835 146.751 506.86 138.424 504.487 133.136C500.794 124.897 500.794 124.897 503.406 119.747C503.406 119.747 510.402 122.573 507.174 132.094C507.144 134.567 506.806 137.026 506.17 139.416C506.17 139.416 513.216 132.671 515.477 137.092C515.477 137.092 511.709 144.239 506.17 141.262C506.17 141.225 499.89 152.177 497.252 149.012Z" fill="#EBEBEB"/>
<path d="M307.948 532.18C442.443 532.18 551.474 525.814 551.474 517.962C551.474 510.11 442.443 503.744 307.948 503.744C173.452 503.744 64.4219 510.11 64.4219 517.962C64.4219 525.814 173.452 532.18 307.948 532.18Z" fill="#F5F5F5"/>
<path d="M374.578 397.31C374.578 396.255 374.515 395.213 374.427 394.183L380.557 390.779C380.1 387.872 379.338 385.022 378.283 382.276L371.275 382.401C370.396 380.503 369.349 378.688 368.147 376.976L371.752 370.972C369.882 368.686 367.777 366.602 365.472 364.755L359.468 368.359C357.761 367.154 355.949 366.103 354.055 365.219L354.168 358.223C351.426 357.166 348.58 356.4 345.678 355.938L342.274 362.067C341.231 361.979 340.201 361.929 339.146 361.929C338.091 361.929 337.049 361.929 336.019 362.067L332.615 355.938C329.708 356.398 326.858 357.164 324.112 358.223L324.225 365.219C322.332 366.106 320.521 367.156 318.812 368.359L312.808 364.755C310.5 366.598 308.394 368.682 306.528 370.972L310.12 376.976C308.918 378.688 307.872 380.503 306.993 382.401L299.997 382.276C298.938 385.022 298.171 387.872 297.711 390.779L303.84 394.183C303.752 395.213 303.702 396.255 303.702 397.31C303.702 398.365 303.702 399.408 303.84 400.438L297.711 403.841C298.171 406.744 298.938 409.59 299.997 412.332L306.993 412.219C307.869 414.114 308.916 415.926 310.12 417.632L306.528 423.636C308.395 425.944 310.5 428.049 312.808 429.916L318.812 426.311C320.524 427.51 322.335 428.56 324.225 429.451L324.112 436.447C326.857 437.508 329.707 438.27 332.615 438.72L336.019 432.591C337.049 432.692 338.091 432.742 339.146 432.742C340.201 432.742 341.231 432.742 342.274 432.591L345.678 438.72C348.581 438.268 351.427 437.506 354.168 436.447L354.055 429.451C355.947 428.563 357.758 427.512 359.468 426.311L365.472 429.916C367.777 428.045 369.881 425.941 371.752 423.636L368.147 417.632C369.352 415.926 370.398 414.114 371.275 412.219L378.283 412.332C379.338 409.59 380.1 406.744 380.557 403.841L374.427 400.438C374.515 399.408 374.578 398.365 374.578 397.31ZM339.197 421.325C334.443 421.327 329.796 419.92 325.843 417.281C321.89 414.642 318.808 410.889 316.988 406.498C315.168 402.107 314.691 397.275 315.618 392.613C316.545 387.951 318.833 383.669 322.194 380.308C325.555 376.947 329.838 374.658 334.5 373.731C339.162 372.805 343.994 373.282 348.385 375.102C352.776 376.922 356.528 380.003 359.167 383.957C361.806 387.91 363.214 392.557 363.211 397.31C363.211 403.679 360.681 409.787 356.178 414.291C351.674 418.795 345.566 421.325 339.197 421.325Z" fill="#407BFF"/>
<path opacity="0.5" d="M374.578 397.31C374.578 396.255 374.515 395.213 374.427 394.183L380.557 390.779C380.1 387.872 379.338 385.022 378.283 382.276L371.275 382.401C370.396 380.503 369.349 378.688 368.147 376.976L371.752 370.972C369.882 368.686 367.777 366.602 365.472 364.755L359.468 368.359C357.761 367.154 355.949 366.103 354.055 365.219L354.168 358.223C351.426 357.166 348.58 356.4 345.678 355.938L342.274 362.067C341.231 361.979 340.201 361.929 339.146 361.929C338.091 361.929 337.049 361.929 336.019 362.067L332.615 355.938C329.708 356.398 326.858 357.164 324.112 358.223L324.225 365.219C322.332 366.106 320.521 367.156 318.812 368.359L312.808 364.755C310.5 366.598 308.394 368.682 306.528 370.972L310.12 376.976C308.918 378.688 307.872 380.503 306.993 382.401L299.997 382.276C298.938 385.022 298.171 387.872 297.711 390.779L303.84 394.183C303.752 395.213 303.702 396.255 303.702 397.31C303.702 398.365 303.702 399.408 303.84 400.438L297.711 403.841C298.171 406.744 298.938 409.59 299.997 412.332L306.993 412.219C307.869 414.114 308.916 415.926 310.12 417.632L306.528 423.636C308.395 425.944 310.5 428.049 312.808 429.916L318.812 426.311C320.524 427.51 322.335 428.56 324.225 429.451L324.112 436.447C326.857 437.508 329.707 438.27 332.615 438.72L336.019 432.591C337.049 432.692 338.091 432.742 339.146 432.742C340.201 432.742 341.231 432.742 342.274 432.591L345.678 438.72C348.581 438.268 351.427 437.506 354.168 436.447L354.055 429.451C355.947 428.563 357.758 427.512 359.468 426.311L365.472 429.916C367.777 428.045 369.881 425.941 371.752 423.636L368.147 417.632C369.352 415.926 370.398 414.114 371.275 412.219L378.283 412.332C379.338 409.59 380.1 406.744 380.557 403.841L374.427 400.438C374.515 399.408 374.578 398.365 374.578 397.31ZM339.197 421.325C334.443 421.327 329.796 419.92 325.843 417.281C321.89 414.642 318.808 410.889 316.988 406.498C315.168 402.107 314.691 397.275 315.618 392.613C316.545 387.951 318.833 383.669 322.194 380.308C325.555 376.947 329.838 374.658 334.5 373.731C339.162 372.805 343.994 373.282 348.385 375.102C352.776 376.922 356.528 380.003 359.167 383.957C361.806 387.91 363.214 392.557 363.211 397.31C363.211 403.679 360.681 409.787 356.178 414.291C351.674 418.795 345.566 421.325 339.197 421.325Z" fill="white"/>
<path d="M186.403 212.528C186.403 211.762 186.403 211.008 186.29 210.255L190.748 207.743C190.411 205.631 189.855 203.56 189.09 201.563L184.004 201.651C183.365 200.272 182.6 198.956 181.718 197.72L184.343 193.349C182.997 191.689 181.481 190.173 179.821 188.827L175.45 191.44C174.21 190.566 172.895 189.805 171.519 189.166L171.594 184.142C169.606 183.364 167.538 182.808 165.427 182.484L162.915 186.931C162.162 186.868 161.408 186.83 160.642 186.83C159.876 186.83 159.11 186.83 158.369 186.931L155.857 182.484C153.742 182.808 151.67 183.364 149.677 184.142L149.765 189.166C148.385 189.805 147.065 190.566 145.821 191.44L141.463 188.827C139.799 190.173 138.279 191.688 136.929 193.349L139.554 197.72C138.676 198.959 137.911 200.275 137.268 201.651L132.244 201.563C131.479 203.56 130.923 205.631 130.586 207.743L135.045 210.255C135.045 211.008 134.944 211.762 134.944 212.528C134.944 213.294 134.944 214.048 135.045 214.801L130.624 217.288C130.959 219.4 131.515 221.471 132.282 223.468L137.306 223.38C137.951 224.758 138.716 226.078 139.591 227.324L136.966 231.682C138.317 233.342 139.836 234.858 141.501 236.204L145.859 233.591C147.103 234.465 148.423 235.226 149.803 235.864L149.715 240.951C151.707 241.729 153.78 242.285 155.894 242.609L158.406 238.163C159.147 238.163 159.914 238.263 160.68 238.263C161.446 238.263 162.199 238.263 162.953 238.163L165.465 242.609C167.575 242.285 169.644 241.729 171.632 240.951L171.557 235.864C172.932 235.226 174.248 234.465 175.488 233.591L179.859 236.204C181.519 234.857 183.034 233.342 184.38 231.682L181.718 227.336C182.598 226.094 183.363 224.773 184.004 223.392L189.09 223.48C189.857 221.484 190.413 219.413 190.748 217.301L186.29 214.789C186.352 214.048 186.403 213.294 186.403 212.528ZM160.68 222.664C158.675 222.664 156.715 222.069 155.048 220.956C153.382 219.842 152.082 218.259 151.315 216.407C150.548 214.555 150.347 212.517 150.739 210.55C151.13 208.584 152.095 206.778 153.513 205.361C154.93 203.943 156.736 202.978 158.702 202.587C160.668 202.196 162.706 202.396 164.559 203.164C166.411 203.931 167.994 205.23 169.107 206.897C170.221 208.564 170.816 210.523 170.816 212.528C170.816 215.216 169.748 217.794 167.847 219.695C165.946 221.596 163.368 222.664 160.68 222.664Z" fill="#407BFF"/>
<path opacity="0.6" d="M186.403 212.528C186.403 211.762 186.403 211.008 186.29 210.255L190.748 207.743C190.411 205.631 189.855 203.56 189.09 201.563L184.004 201.651C183.365 200.272 182.6 198.956 181.718 197.72L184.343 193.349C182.997 191.689 181.481 190.173 179.821 188.827L175.45 191.44C174.21 190.566 172.895 189.805 171.519 189.166L171.594 184.142C169.606 183.364 167.538 182.808 165.427 182.484L162.915 186.931C162.162 186.868 161.408 186.83 160.642 186.83C159.876 186.83 159.11 186.83 158.369 186.931L155.857 182.484C153.742 182.808 151.67 183.364 149.677 184.142L149.765 189.166C148.385 189.805 147.065 190.566 145.821 191.44L141.463 188.827C139.799 190.173 138.279 191.688 136.929 193.349L139.554 197.72C138.676 198.959 137.911 200.275 137.268 201.651L132.244 201.563C131.479 203.56 130.923 205.631 130.586 207.743L135.045 210.255C135.045 211.008 134.944 211.762 134.944 212.528C134.944 213.294 134.944 214.048 135.045 214.801L130.624 217.288C130.959 219.4 131.515 221.471 132.282 223.468L137.306 223.38C137.951 224.758 138.716 226.078 139.591 227.324L136.966 231.682C138.317 233.342 139.836 234.858 141.501 236.204L145.859 233.591C147.103 234.465 148.423 235.226 149.803 235.864L149.715 240.951C151.707 241.729 153.78 242.285 155.894 242.609L158.406 238.163C159.147 238.163 159.914 238.263 160.68 238.263C161.446 238.263 162.199 238.263 162.953 238.163L165.465 242.609C167.575 242.285 169.644 241.729 171.632 240.951L171.557 235.864C172.932 235.226 174.248 234.465 175.488 233.591L179.859 236.204C181.519 234.857 183.034 233.342 184.38 231.682L181.718 227.336C182.598 226.094 183.363 224.773 184.004 223.392L189.09 223.48C189.857 221.484 190.413 219.413 190.748 217.301L186.29 214.789C186.352 214.048 186.403 213.294 186.403 212.528ZM160.68 222.664C158.675 222.664 156.715 222.069 155.048 220.956C153.382 219.842 152.082 218.259 151.315 216.407C150.548 214.555 150.347 212.517 150.739 210.55C151.13 208.584 152.095 206.778 153.513 205.361C154.93 203.943 156.736 202.978 158.702 202.587C160.668 202.196 162.706 202.396 164.559 203.164C166.411 203.931 167.994 205.23 169.107 206.897C170.221 208.564 170.816 210.523 170.816 212.528C170.816 215.216 169.748 217.794 167.847 219.695C165.946 221.596 163.368 222.664 160.68 222.664Z" fill="white"/>
<path d="M338.379 135.385H305.723L272.879 511.318H305.535C312.984 511.182 320.125 508.323 325.61 503.28C331.094 498.238 334.542 491.361 335.302 483.95L363.361 162.753C363.744 159.268 363.379 155.742 362.292 152.408C361.205 149.075 359.42 146.012 357.056 143.422C354.693 140.833 351.804 138.777 348.584 137.391C345.364 136.005 341.885 135.321 338.379 135.385Z" fill="#263238"/>
<path d="M298.816 511.318H164.424C160.916 511.385 157.435 510.704 154.211 509.32C150.988 507.936 148.096 505.88 145.73 503.29C143.364 500.7 141.576 497.636 140.488 494.301C139.399 490.966 139.034 487.437 139.417 483.95L167.526 162.753C168.284 155.341 171.731 148.463 177.216 143.42C182.701 138.377 189.843 135.518 197.293 135.385H331.685C335.194 135.316 338.677 135.995 341.902 137.379C345.127 138.762 348.02 140.818 350.388 143.408C352.755 145.998 354.544 149.063 355.633 152.399C356.722 155.735 357.088 159.265 356.705 162.753L328.583 483.95C327.826 491.362 324.378 498.24 318.893 503.283C313.408 508.326 306.266 511.185 298.816 511.318Z" fill="#407BFF"/>
<path d="M331.157 141.665H296.227C295.082 141.685 293.979 142.096 293.1 142.829C292.22 143.562 291.618 144.574 291.392 145.696L291.166 146.789C290.561 149.5 289.064 151.929 286.914 153.687C284.764 155.446 282.086 156.431 279.309 156.485H246.075C243.445 156.536 240.901 155.546 238.998 153.729C237.095 151.913 235.987 149.419 235.914 146.789V145.696C235.888 144.619 235.435 143.596 234.656 142.852C233.877 142.108 232.834 141.704 231.757 141.727H196.777C191.037 141.83 185.533 144.032 181.307 147.918C177.081 151.804 174.425 157.104 173.843 162.816L145.696 483.95C145.401 486.636 145.682 489.353 146.519 491.922C147.357 494.491 148.733 496.852 150.555 498.847C152.377 500.843 154.603 502.427 157.085 503.494C159.567 504.562 162.249 505.088 164.95 505.038H299.342C305.082 504.933 310.584 502.729 314.809 498.844C319.035 494.959 321.691 489.66 322.277 483.95L350.424 162.753C350.719 160.066 350.438 157.347 349.599 154.777C348.76 152.208 347.383 149.846 345.56 147.851C343.737 145.855 341.509 144.271 339.026 143.204C336.542 142.138 333.859 141.613 331.157 141.665Z" fill="#407BFF"/>
<path opacity="0.7" d="M331.157 141.665H296.227C295.082 141.685 293.979 142.096 293.1 142.829C292.22 143.562 291.618 144.574 291.392 145.696L291.166 146.789C290.561 149.5 289.064 151.929 286.914 153.687C284.764 155.446 282.086 156.431 279.309 156.485H246.075C243.445 156.536 240.901 155.546 238.998 153.729C237.095 151.913 235.987 149.419 235.914 146.789V145.696C235.888 144.619 235.435 143.596 234.656 142.852C233.877 142.108 232.834 141.704 231.757 141.727H196.777C191.037 141.83 185.533 144.032 181.307 147.918C177.081 151.804 174.425 157.104 173.843 162.816L145.696 483.95C145.401 486.636 145.682 489.353 146.519 491.922C147.357 494.491 148.733 496.852 150.555 498.847C152.377 500.843 154.603 502.427 157.085 503.494C159.567 504.562 162.249 505.088 164.95 505.038H299.342C305.082 504.933 310.584 502.729 314.809 498.844C319.035 494.959 321.691 489.66 322.277 483.95L350.424 162.753C350.719 160.066 350.438 157.347 349.599 154.777C348.76 152.208 347.383 149.846 345.56 147.851C343.737 145.855 341.509 144.271 339.026 143.204C336.542 142.138 333.859 141.613 331.157 141.665Z" fill="white"/>
<g opacity="0.2">
<path d="M255.534 145.219C255.46 145.944 255.123 146.617 254.585 147.11C254.048 147.603 253.349 147.882 252.62 147.894C252.278 147.9 251.939 147.833 251.625 147.697C251.311 147.561 251.03 147.359 250.801 147.106C250.571 146.853 250.399 146.553 250.294 146.228C250.19 145.902 250.156 145.558 250.196 145.219C250.269 144.497 250.606 143.827 251.14 143.336C251.675 142.845 252.371 142.568 253.097 142.556C253.438 142.551 253.776 142.618 254.09 142.753C254.403 142.888 254.684 143.088 254.914 143.339C255.145 143.591 255.319 143.888 255.426 144.212C255.532 144.536 255.569 144.879 255.534 145.219Z" fill="black"/>
<path d="M274.689 142.556H265.533C264.807 142.568 264.111 142.845 263.576 143.336C263.042 143.827 262.705 144.497 262.632 145.219C262.594 145.559 262.63 145.903 262.735 146.229C262.841 146.554 263.015 146.854 263.246 147.107C263.476 147.36 263.758 147.561 264.072 147.697C264.387 147.832 264.726 147.9 265.068 147.894H274.225C274.951 147.879 275.648 147.599 276.182 147.106C276.717 146.613 277.052 145.942 277.126 145.219C277.162 144.879 277.125 144.536 277.018 144.212C276.911 143.888 276.737 143.591 276.507 143.339C276.276 143.088 275.995 142.888 275.682 142.753C275.369 142.618 275.03 142.551 274.689 142.556Z" fill="black"/>
</g>
<path d="M189.027 156.373H191.853L192.092 153.547H189.266L189.027 156.373Z" fill="#407BFF"/>
<path d="M194.918 153.547L194.68 156.373H197.506L197.744 153.547L197.996 150.721H195.17L194.918 153.547Z" fill="#407BFF"/>
<path d="M201.073 147.895L200.822 150.721L200.571 153.547L200.332 156.373H203.158L203.397 153.547L203.648 150.721L203.899 147.895H201.073Z" fill="#407BFF"/>
<path d="M322.578 148.083L322.402 150.155H321.02L320.656 154.3H322.038L321.849 156.373H334.284L335.012 148.083H322.578ZM327.602 154.3H323.457L323.821 150.155H327.966L327.602 154.3Z" fill="#407BFF"/>
<g opacity="0.4">
<path d="M246.178 156.423L153.41 501.358C156.78 503.787 160.837 505.077 164.99 505.038H172.238L265.998 156.423H246.178Z" fill="white"/>
<path d="M331.159 141.665H296.23C295.085 141.685 293.982 142.096 293.102 142.829C292.223 143.563 291.62 144.574 291.394 145.697L291.168 146.789C290.576 149.427 289.14 151.8 287.077 153.548C285.015 155.296 282.438 156.323 279.739 156.473L185.953 505.038H257.482L350.426 159.425C350.126 154.551 347.953 149.981 344.363 146.672C340.772 143.362 336.042 141.568 331.159 141.665Z" fill="white"/>
</g>
<path d="M222.173 239.896H181.277C180.634 239.91 179.995 239.785 179.404 239.531C178.813 239.277 178.283 238.899 177.85 238.423C177.417 237.947 177.091 237.384 176.893 236.772C176.696 236.159 176.632 235.512 176.705 234.872L180.612 190.259C180.744 188.901 181.371 187.638 182.374 186.712C183.377 185.785 184.685 185.26 186.05 185.235H226.958C227.601 185.222 228.239 185.347 228.83 185.601C229.42 185.855 229.95 186.233 230.382 186.709C230.814 187.185 231.139 187.749 231.335 188.361C231.531 188.973 231.593 189.621 231.517 190.259L227.624 234.872C227.486 236.231 226.855 237.493 225.851 238.418C224.847 239.344 223.538 239.87 222.173 239.896Z" fill="white"/>
<path d="M326.398 279.059H237.058C236.415 279.072 235.776 278.947 235.185 278.693C234.594 278.439 234.064 278.061 233.631 277.585C233.198 277.109 232.872 276.546 232.674 275.934C232.477 275.321 232.413 274.674 232.487 274.035L239.822 190.209C239.954 188.85 240.581 187.588 241.584 186.661C242.587 185.735 243.895 185.21 245.26 185.185H334.599C335.242 185.174 335.88 185.3 336.47 185.555C337.06 185.81 337.589 186.188 338.022 186.663C338.455 187.138 338.781 187.701 338.979 188.312C339.177 188.924 339.243 189.57 339.171 190.209L331.836 274.035C331.704 275.393 331.077 276.656 330.074 277.583C329.071 278.509 327.763 279.034 326.398 279.059Z" fill="white"/>
<path d="M319.678 355.788H171.131C170.488 355.799 169.851 355.673 169.261 355.418C168.67 355.163 168.141 354.785 167.709 354.31C167.276 353.835 166.95 353.272 166.752 352.661C166.553 352.049 166.488 351.403 166.559 350.764L171.721 291.732C171.859 290.373 172.49 289.112 173.494 288.186C174.499 287.26 175.807 286.734 177.173 286.708H325.72C326.362 286.697 327 286.823 327.59 287.077C328.18 287.332 328.71 287.71 329.142 288.185C329.575 288.661 329.901 289.223 330.099 289.835C330.298 290.446 330.363 291.093 330.291 291.732L325.129 350.764C324.991 352.123 324.361 353.384 323.357 354.309C322.352 355.235 321.044 355.761 319.678 355.788Z" fill="white"/>
<path d="M309.151 476.1H160.604C159.961 476.111 159.323 475.985 158.733 475.73C158.143 475.475 157.614 475.098 157.181 474.622C156.749 474.147 156.422 473.584 156.224 472.973C156.026 472.361 155.96 471.715 156.032 471.076L165.012 368.473C165.145 367.112 165.774 365.848 166.779 364.921C167.785 363.995 169.096 363.471 170.463 363.449H319.023C319.666 363.436 320.304 363.56 320.895 363.815C321.485 364.069 322.015 364.447 322.447 364.923C322.879 365.399 323.204 365.962 323.4 366.575C323.596 367.187 323.658 367.835 323.582 368.473L314.615 471.076C314.476 472.437 313.844 473.7 312.837 474.626C311.83 475.552 310.519 476.076 309.151 476.1Z" fill="white"/>
<path d="M206.161 228.215H165.266C164.622 228.229 163.983 228.104 163.392 227.85C162.801 227.596 162.271 227.218 161.838 226.742C161.405 226.266 161.079 225.703 160.882 225.091C160.684 224.478 160.62 223.831 160.694 223.191L164.6 178.566C164.735 177.206 165.365 175.943 166.37 175.017C167.375 174.091 168.685 173.566 170.051 173.542H211.009C211.652 173.531 212.289 173.657 212.88 173.911C213.47 174.166 213.999 174.544 214.432 175.019C214.864 175.495 215.19 176.057 215.389 176.669C215.587 177.28 215.652 177.927 215.581 178.566L211.675 223.191C211.538 224.562 210.899 225.833 209.881 226.761C208.863 227.689 207.538 228.207 206.161 228.215Z" fill="#407BFF"/>
<path opacity="0.4" d="M206.161 228.215H165.266C164.622 228.229 163.983 228.104 163.392 227.85C162.801 227.596 162.271 227.218 161.838 226.742C161.405 226.266 161.079 225.703 160.882 225.091C160.684 224.478 160.62 223.831 160.694 223.191L164.6 178.566C164.735 177.206 165.365 175.943 166.37 175.017C167.375 174.091 168.685 173.566 170.051 173.542H211.009C211.652 173.531 212.289 173.657 212.88 173.911C213.47 174.166 213.999 174.544 214.432 175.019C214.864 175.495 215.19 176.057 215.389 176.669C215.587 177.28 215.652 177.927 215.581 178.566L211.675 223.191C211.538 224.562 210.899 225.833 209.881 226.761C208.863 227.689 207.538 228.207 206.161 228.215Z" fill="white"/>
<path opacity="0.8" d="M211.75 178.591C211.768 178.432 211.752 178.272 211.703 178.12C211.654 177.968 211.574 177.828 211.467 177.709C211.36 177.591 211.229 177.496 211.083 177.431C210.937 177.367 210.779 177.334 210.62 177.335H169.712C169.373 177.343 169.048 177.475 168.8 177.707C168.553 177.938 168.399 178.253 168.368 178.591L164.462 223.217C164.442 223.376 164.456 223.537 164.504 223.69C164.553 223.843 164.633 223.984 164.74 224.103C164.847 224.222 164.979 224.317 165.126 224.38C165.273 224.444 165.432 224.476 165.592 224.473H206.5C206.839 224.465 207.164 224.332 207.411 224.101C207.659 223.869 207.813 223.554 207.844 223.217L211.75 178.591Z" fill="white"/>
<path d="M196.139 199.001C195.686 204.113 192.572 208.258 187.46 208.258C182.348 208.258 179.924 204.113 180.413 199.001C180.903 193.889 183.968 189.744 189.08 189.744C194.192 189.744 196.578 193.889 196.139 199.001Z" fill="#407BFF"/>
<path d="M205.405 216.924C204.779 214.684 203.426 212.716 201.56 211.329C199.693 209.942 197.419 209.215 195.094 209.262H179.607C177.14 209.305 174.736 210.048 172.674 211.404C170.613 212.761 168.98 214.675 167.964 216.924L164.711 224.083C164.817 224.199 164.948 224.292 165.093 224.355C165.238 224.418 165.394 224.449 165.552 224.447H206.46C206.797 224.442 207.119 224.312 207.365 224.083L205.405 216.924Z" fill="#407BFF"/>
<path d="M287.096 463.54H138.549C137.906 463.551 137.269 463.425 136.678 463.17C136.088 462.915 135.559 462.538 135.127 462.062C134.694 461.587 134.368 461.025 134.169 460.413C133.971 459.802 133.906 459.155 133.977 458.516L142.958 355.913C143.09 354.555 143.717 353.292 144.72 352.365C145.723 351.439 147.031 350.914 148.396 350.889H296.943C297.586 350.878 298.224 351.004 298.814 351.259C299.404 351.514 299.933 351.892 300.366 352.367C300.798 352.842 301.125 353.405 301.323 354.016C301.521 354.628 301.587 355.275 301.515 355.913L292.535 458.516C292.4 459.874 291.772 461.135 290.77 462.061C289.767 462.987 288.46 463.513 287.096 463.54Z" fill="#407BFF"/>
<path opacity="0.4" d="M287.096 463.54H138.549C137.906 463.551 137.269 463.425 136.678 463.17C136.088 462.915 135.559 462.538 135.127 462.062C134.694 461.587 134.368 461.025 134.169 460.413C133.971 459.802 133.906 459.155 133.977 458.516L142.958 355.913C143.09 354.555 143.717 353.292 144.72 352.365C145.723 351.439 147.031 350.914 148.396 350.889H296.943C297.586 350.878 298.224 351.004 298.814 351.259C299.404 351.514 299.933 351.892 300.366 352.367C300.798 352.842 301.125 353.405 301.323 354.016C301.521 354.628 301.587 355.275 301.515 355.913L292.535 458.516C292.4 459.874 291.772 461.135 290.77 462.061C289.767 462.987 288.46 463.513 287.096 463.54Z" fill="white"/>
<path d="M296.618 354.682H148.071C147.73 354.684 147.403 354.815 147.154 355.047C146.905 355.28 146.753 355.598 146.727 355.938L137.747 458.54C137.727 458.699 137.742 458.861 137.79 459.014C137.838 459.167 137.918 459.308 138.025 459.427C138.132 459.546 138.264 459.64 138.411 459.704C138.558 459.768 138.717 459.799 138.877 459.796H287.424C287.763 459.786 288.086 459.653 288.333 459.422C288.58 459.19 288.735 458.877 288.768 458.54L297.749 355.938C297.769 355.779 297.754 355.617 297.706 355.464C297.658 355.312 297.578 355.171 297.47 355.052C297.363 354.933 297.232 354.838 297.085 354.774C296.938 354.71 296.779 354.679 296.618 354.682Z" fill="#263238"/>
<path d="M230.614 420.659C238.716 412.903 239.522 400.595 232.413 393.169C225.304 385.743 212.973 386.011 204.87 393.767C196.768 401.524 195.962 413.832 203.071 421.258C210.18 428.684 222.511 428.416 230.614 420.659Z" fill="#407BFF"/>
<path opacity="0.9" d="M227.912 407.22L211.723 417.143L213.468 397.311L227.912 407.22Z" fill="white"/>
<path opacity="0.8" d="M270.843 444.586H146.336L146.424 443.544H270.931L270.843 444.586Z" fill="white"/>
<path d="M194.129 444.059C194.095 444.443 193.919 444.801 193.636 445.064C193.353 445.326 192.982 445.474 192.596 445.478H145.157C144.978 445.48 144.8 445.443 144.636 445.37C144.472 445.297 144.325 445.189 144.206 445.055C144.087 444.92 143.998 444.762 143.946 444.59C143.893 444.418 143.878 444.237 143.901 444.059C143.938 443.677 144.115 443.322 144.398 443.062C144.681 442.803 145.05 442.657 145.434 442.652H192.873C193.051 442.651 193.228 442.688 193.391 442.76C193.554 442.832 193.7 442.939 193.819 443.072C193.938 443.205 194.027 443.362 194.08 443.532C194.134 443.702 194.15 443.882 194.129 444.059Z" fill="#407BFF"/>
<g opacity="0.8">
<path d="M282.484 440.982H284.079L283.966 442.364H285.31L285.511 440.141H282.56L282.484 440.982Z" fill="white"/>
<path d="M274.106 442.364L274.232 440.982H275.827L275.903 440.141H272.951L272.75 442.364H274.106Z" fill="white"/>
<path d="M275.301 447.149H273.694L273.819 445.768H272.463L272.262 447.991H275.226L275.301 447.149Z" fill="white"/>
<path d="M283.667 445.768L283.542 447.149H281.946L281.871 447.991H284.823L285.024 445.768H283.667Z" fill="white"/>
</g>
<g opacity="0.8">
<path opacity="0.9" d="M210.582 455.224L215.405 452.273L211.097 449.309L210.582 455.224Z" fill="white"/>
<path opacity="0.9" d="M215.644 449.623L215.406 452.273L215.18 454.911H216.411L216.875 449.623H215.644Z" fill="white"/>
</g>
<g opacity="0.8">
<path opacity="0.9" d="M221.145 454.911H222.752L223.217 449.623H221.609L221.145 454.911Z" fill="white"/>
<path opacity="0.9" d="M224.449 449.623L223.984 454.911H225.58L226.044 449.623H224.449Z" fill="white"/>
</g>
<path opacity="0.8" d="M206.362 452.273L201.539 455.224L202.054 449.309L206.362 452.273Z" fill="white"/>
<path d="M296.794 341.959H148.209C147.567 341.97 146.929 341.844 146.339 341.589C145.748 341.334 145.219 340.957 144.787 340.481C144.354 340.006 144.028 339.444 143.83 338.832C143.631 338.22 143.566 337.574 143.637 336.935L148.8 277.903C148.937 276.544 149.568 275.283 150.572 274.357C151.577 273.432 152.885 272.906 154.251 272.879H302.835C303.479 272.866 304.117 272.99 304.709 273.244C305.3 273.499 305.83 273.876 306.263 274.352C306.696 274.828 307.022 275.391 307.219 276.004C307.417 276.616 307.481 277.264 307.407 277.903L302.245 336.935C302.107 338.294 301.477 339.555 300.472 340.481C299.468 341.406 298.16 341.932 296.794 341.959Z" fill="#407BFF"/>
<path opacity="0.4" d="M296.794 341.959H148.209C147.567 341.97 146.929 341.844 146.339 341.589C145.748 341.334 145.219 340.957 144.787 340.481C144.354 340.006 144.028 339.444 143.83 338.832C143.631 338.22 143.566 337.574 143.637 336.935L148.8 277.903C148.937 276.544 149.568 275.283 150.572 274.357C151.577 273.432 152.885 272.906 154.251 272.879H302.835C303.479 272.866 304.117 272.99 304.709 273.244C305.3 273.499 305.83 273.876 306.263 274.352C306.696 274.828 307.022 275.391 307.219 276.004C307.417 276.616 307.481 277.264 307.407 277.903L302.245 336.935C302.107 338.294 301.477 339.555 300.472 340.481C299.468 341.406 298.16 341.932 296.794 341.959Z" fill="white"/>
<path opacity="0.3" d="M302.558 276.069H154.011C153.503 276.075 153.015 276.268 152.64 276.611C152.264 276.954 152.028 277.422 151.976 277.928L146.814 336.96C146.789 337.198 146.815 337.438 146.89 337.666C146.964 337.893 147.087 338.102 147.248 338.279C147.409 338.455 147.606 338.596 147.826 338.691C148.045 338.786 148.283 338.834 148.522 338.831H297.069C297.578 338.819 298.064 338.622 298.438 338.278C298.813 337.934 299.049 337.465 299.104 336.96L304.266 277.928C304.291 277.69 304.265 277.45 304.19 277.223C304.115 276.997 303.993 276.788 303.831 276.613C303.67 276.437 303.473 276.297 303.253 276.204C303.034 276.11 302.797 276.064 302.558 276.069Z" fill="white"/>
<path opacity="0.4" d="M184.356 307.444H255.948L252.431 290.187L247.721 276.069H175.488L184.356 307.444Z" fill="white"/>
<path opacity="0.4" d="M184.354 307.443L149.287 308.699L146.775 336.947C146.75 337.185 146.776 337.425 146.851 337.653C146.925 337.88 147.048 338.089 147.209 338.266C147.37 338.443 147.567 338.583 147.787 338.678C148.006 338.774 148.244 338.821 148.483 338.818H193.247L184.354 307.443Z" fill="white"/>
<path d="M299.908 327.666L300.498 320.946L259.502 304.668L255.533 293.163L268.106 276.069H262.115L253.913 287.223L251.075 276.069H245.711L249.894 292.686L253.913 304.304H186.089L178.666 276.069H173.341L180.764 304.304H149.678L149.125 310.584H182.422L189.845 338.819H195.157L187.734 310.584H225L244.531 338.819H250.899L231.368 310.584H256.865L299.908 327.666Z" fill="white"/>
<path opacity="0.2" d="M228.549 301.57C232.884 301.551 236.395 300.766 236.391 299.815C236.387 298.865 232.869 298.11 228.534 298.129C224.198 298.148 220.687 298.933 220.691 299.884C220.695 300.834 224.213 301.589 228.549 301.57Z" fill="black"/>
<path d="M230.313 279.837C228.179 279.886 226.136 280.709 224.564 282.153C222.993 283.598 222 285.565 221.772 287.687C221.395 292.02 228.504 300.561 228.504 300.561C228.504 300.561 237.095 292.02 237.472 287.687C237.581 286.688 237.476 285.677 237.164 284.722C236.853 283.767 236.341 282.889 235.664 282.146C234.987 281.404 234.16 280.814 233.237 280.416C232.315 280.018 231.318 279.82 230.313 279.837ZM229.308 291.266C228.85 291.275 228.395 291.185 227.974 291.004C227.553 290.822 227.176 290.553 226.867 290.215C226.558 289.876 226.324 289.475 226.182 289.04C226.04 288.604 225.993 288.143 226.043 287.687C226.144 286.718 226.595 285.82 227.312 285.16C228.029 284.501 228.962 284.127 229.936 284.107C230.395 284.099 230.849 284.189 231.27 284.37C231.691 284.552 232.069 284.821 232.378 285.159C232.687 285.498 232.92 285.898 233.062 286.334C233.204 286.77 233.252 287.231 233.202 287.687C233.106 288.658 232.656 289.559 231.938 290.22C231.22 290.88 230.284 291.253 229.308 291.266Z" fill="#407BFF"/>
<path d="M421.337 478.523L419.365 501.081H409.141L408.086 478.523H421.337Z" fill="#B97964"/>
<path d="M404.544 500.529C403.425 500.634 402.306 500.321 401.404 499.65C401.291 499.487 401.23 499.294 401.23 499.097C401.23 498.899 401.291 498.706 401.404 498.544C401.492 498.398 401.608 498.272 401.747 498.173C401.885 498.073 402.042 498.003 402.208 497.966C404.004 497.502 407.709 499.712 407.872 499.8C407.917 499.83 407.952 499.872 407.974 499.921C407.997 499.969 408.005 500.023 407.998 500.077C407.983 500.126 407.956 500.171 407.919 500.206C407.881 500.241 407.835 500.266 407.784 500.278C406.713 500.453 405.629 500.537 404.544 500.529ZM402.873 498.406C402.712 498.401 402.551 498.422 402.396 498.469C402.29 498.483 402.189 498.52 402.1 498.579C402.01 498.638 401.936 498.716 401.881 498.808C401.693 499.122 401.756 499.273 401.881 499.361C402.358 500.077 405.071 500.139 407.068 499.926C405.781 499.153 404.357 498.637 402.873 498.406Z" fill="#407BFF"/>
<path d="M407.797 500.277H407.684C406.428 499.686 403.916 497.313 404.13 496.107C404.13 495.818 404.381 495.466 405.085 495.416C405.337 495.391 405.593 495.419 405.835 495.496C406.077 495.574 406.3 495.701 406.491 495.868C407.835 497.011 408.074 499.913 408.086 500.051C408.091 500.095 408.082 500.14 408.062 500.18C408.042 500.22 408.011 500.253 407.973 500.277C407.916 500.295 407.855 500.295 407.797 500.277ZM405.285 495.881H405.135C404.683 495.881 404.645 496.094 404.632 496.157C404.557 496.886 406.215 498.732 407.521 499.548C407.42 498.328 406.941 497.169 406.152 496.232C405.917 496.013 405.607 495.891 405.285 495.893V495.881Z" fill="#407BFF"/>
<path d="M408.954 498.795L420.66 498.996C420.875 498.998 421.082 499.074 421.247 499.212C421.411 499.349 421.524 499.539 421.564 499.75L423.524 509.308C423.564 509.513 423.563 509.723 423.522 509.928C423.48 510.132 423.399 510.326 423.282 510.499C423.165 510.671 423.016 510.819 422.841 510.934C422.667 511.049 422.472 511.128 422.268 511.167C422.155 511.18 422.041 511.18 421.928 511.167C417.721 511.029 413.965 510.727 408.715 510.652C402.511 510.552 404.081 511.318 396.783 511.293C392.387 511.293 391.671 506.269 393.543 506.055C402.084 505.126 403.013 502.576 406.354 499.574C407.094 499.001 408.021 498.723 408.954 498.795Z" fill="#263238"/>
<path d="M390.617 281.821L407.36 486.9H421.301C421.301 486.9 429.428 430.054 423.813 394.308C423.229 390.517 423.153 386.665 423.587 382.853C425.32 367.455 429.566 327.966 429.001 314.615C429.001 314.615 436.097 298.563 430.458 276.244H390.617V281.821Z" fill="#263238"/>
<path d="M423.32 483.058L422.743 486.901L424.011 490.041H406.339L406.804 486.901L405.297 483.058H423.32Z" fill="#263238"/>
<path opacity="0.3" d="M423.32 483.058L422.743 486.901L424.011 490.041H406.339L406.804 486.901L405.297 483.058H423.32Z" fill="white"/>
<path opacity="0.5" d="M422.958 301.062L430.293 310.897C429.955 312.178 429.535 313.437 429.037 314.665C429.389 323.017 428.17 338.127 426.877 351.189C412.646 317.83 416.703 304.881 416.703 304.881L422.958 301.062Z" fill="black"/>
<path d="M349.783 202.09L344.835 193.725L347.912 188.4C348.108 188.054 348.227 187.669 348.26 187.272C348.292 186.875 348.238 186.475 348.1 186.101L347.861 185.499C347.672 185.006 347.341 184.58 346.909 184.276C346.478 183.972 345.965 183.803 345.437 183.79L340.589 183.652C340.098 183.639 339.612 183.763 339.187 184.009C338.761 184.255 338.412 184.614 338.178 185.046L337.185 186.843C336.949 187.275 336.818 187.758 336.802 188.251C336.787 188.744 336.888 189.234 337.098 189.681L339.183 194.19L343.051 204.565L349.783 202.09Z" fill="#B97964"/>
<path d="M389.157 200.621L360.91 221.182L347.634 196.351L340.098 199.616C340.098 199.616 351.716 237.296 358.473 235.726C365.23 234.156 384.334 224.824 390.501 218.305C393.628 215.052 396.002 209.061 392.912 201.651C392.762 201.31 392.537 201.007 392.254 200.763C391.972 200.52 391.639 200.343 391.279 200.244C390.92 200.145 390.543 200.128 390.176 200.193C389.809 200.259 389.461 200.405 389.157 200.621Z" fill="#407BFF"/>
<path d="M399.721 151.674C399.721 151.674 389.736 154.286 394.358 166.319C394.358 166.319 399.319 165.063 400.136 161.797C400.952 158.532 401.706 154.073 401.706 154.073L399.721 151.674Z" fill="#263238"/>
<path opacity="0.3" d="M399.721 151.674C399.721 151.674 389.736 154.286 394.358 166.319C394.358 166.319 399.319 165.063 400.136 161.797C400.952 158.532 401.706 154.073 401.706 154.073L399.721 151.674Z" fill="black"/>
<path d="M423.286 199.427L405.061 198.837L397.525 199.917L396.508 213.658L411.19 218.544L426.853 215.416L427.669 202.178L426.551 199.54L423.286 199.427Z" fill="#B97964"/>
<path d="M471.551 477.946L478.295 501.081H487.075L485.304 477.255L471.551 477.946Z" fill="#B97964"/>
<path d="M472.257 500.529C470.926 500.529 469.569 500.24 469.167 499.65C469.068 499.477 469.025 499.279 469.043 499.081C469.061 498.883 469.139 498.696 469.268 498.544C469.463 498.256 469.758 498.05 470.097 497.966C471.93 497.502 475.51 499.712 475.673 499.8C475.717 499.83 475.75 499.873 475.768 499.922C475.786 499.972 475.788 500.026 475.774 500.077C475.759 500.126 475.732 500.171 475.694 500.206C475.657 500.241 475.61 500.266 475.56 500.278C474.468 500.455 473.363 500.539 472.257 500.529ZM470.699 498.406C470.534 498.402 470.369 498.423 470.21 498.469C470.102 498.483 469.999 498.521 469.908 498.58C469.817 498.638 469.74 498.716 469.682 498.808C469.481 499.122 469.531 499.273 469.594 499.361C470.046 500.077 472.747 500.139 474.756 499.926C473.51 499.153 472.123 498.636 470.674 498.406H470.699Z" fill="#407BFF"/>
<path d="M475.498 500.277H475.385C474.129 499.687 471.73 497.313 472.044 496.107C472.044 495.818 472.333 495.467 473.036 495.416C473.285 495.39 473.537 495.416 473.775 495.494C474.013 495.572 474.232 495.7 474.418 495.868C475.674 497.011 475.799 499.913 475.799 500.051C475.798 500.096 475.786 500.14 475.764 500.18C475.743 500.219 475.711 500.252 475.674 500.277C475.616 500.295 475.555 500.295 475.498 500.277ZM473.174 495.881H473.036C472.571 495.881 472.534 496.095 472.508 496.157C472.395 496.886 473.953 498.732 475.221 499.549C475.189 498.344 474.771 497.182 474.028 496.233C473.797 496.016 473.491 495.895 473.174 495.894V495.881Z" fill="#407BFF"/>
<path d="M476.727 498.795L488.42 498.996C488.632 498.996 488.837 499.072 488.998 499.211C489.16 499.349 489.266 499.54 489.299 499.749L490.744 509.308C490.802 509.718 490.706 510.136 490.474 510.479C490.242 510.823 489.89 511.068 489.488 511.166C489.379 511.179 489.269 511.179 489.161 511.166C484.941 511.028 481.21 510.727 475.96 510.651C469.768 510.551 471.288 511.317 464.003 511.292C459.607 511.292 459.155 506.268 461.027 506.055C469.618 505.125 470.685 502.575 474.177 499.574C474.913 499.03 475.813 498.755 476.727 498.795Z" fill="#263238"/>
<path d="M406.441 276.244L472.821 486.9H486.825C486.825 486.9 480.131 419.177 467.985 392.7C466.489 389.427 465.539 385.931 465.172 382.351C463.916 369.351 460.55 338.605 456.769 321.674C456.292 319.538 456.003 317.366 455.903 315.18C455.576 307.92 453.767 289.809 444.322 276.244H406.441Z" fill="#263238"/>
<path d="M489.301 483.058L488.522 486.901L489.627 490.041H471.955L471.189 486.901L469.883 483.058H489.301Z" fill="#263238"/>
<path opacity="0.3" d="M489.301 483.058L488.522 486.901L489.627 490.041H471.955L471.189 486.901L469.883 483.058H489.301Z" fill="white"/>
<path d="M425.57 201.701C425.57 201.701 419.73 210.618 410.096 210.179C400.978 209.764 399.408 200.658 399.408 200.658L398.252 214.575L397.109 248.273L398.566 262.566L398.466 278.317C407.041 279.018 415.665 278.879 424.214 277.902C424.214 277.902 425.884 220.126 425.57 220.44C425.256 220.754 428.296 210.392 428.296 210.392V206.197L425.57 201.701Z" fill="#407BFF"/>
<path opacity="0.6" d="M425.57 201.701C425.57 201.701 419.73 210.618 410.096 210.179C400.978 209.764 399.408 200.658 399.408 200.658L398.252 214.575L397.109 248.273L398.566 262.566L398.466 278.317C407.041 279.018 415.665 278.879 424.214 277.902C424.214 277.902 425.884 220.126 425.57 220.44C425.256 220.754 428.296 210.392 428.296 210.392V206.197L425.57 201.701Z" fill="white"/>
<path d="M416.289 198.36C416.289 198.36 446.433 196.501 447.689 205.594C448.945 214.688 440.153 233.314 441.609 246.075C443.066 258.836 450.201 277.99 450.201 277.99C450.201 277.99 427.379 293.175 419.429 288.151C411.478 283.127 413.588 225.565 413.588 225.565C413.588 225.565 430.519 201.487 420.999 200.231C411.478 198.975 400.589 197.97 401.417 205.594C402.352 212.11 403.656 218.568 405.324 224.937C405.324 224.937 404.62 288.792 397.863 287.95C391.106 287.109 387.689 279.786 387.689 279.786C389.135 272.028 389.135 264.07 387.689 256.312C385.303 243.149 380.932 232.799 383.306 222.4C385.68 212 387.689 198.711 392.713 198.536C396.996 198.234 416.289 198.36 416.289 198.36Z" fill="#407BFF"/>
<path opacity="0.2" d="M416.289 198.36C416.289 198.36 446.433 196.501 447.689 205.594C448.945 214.688 440.153 233.314 441.609 246.075C443.066 258.836 450.201 277.99 450.201 277.99C450.201 277.99 427.379 293.175 419.429 288.151C411.478 283.127 413.588 225.565 413.588 225.565C413.588 225.565 430.519 201.487 420.999 200.231C411.478 198.975 400.589 197.97 401.417 205.594C402.352 212.11 403.656 218.568 405.324 224.937C405.324 224.937 404.62 288.792 397.863 287.95C391.106 287.109 387.689 279.786 387.689 279.786C389.135 272.028 389.135 264.07 387.689 256.312C385.303 243.149 380.932 232.799 383.306 222.4C385.68 212 387.689 198.711 392.713 198.536C396.996 198.234 416.289 198.36 416.289 198.36Z" fill="black"/>
<path d="M403.554 198.309C409.834 198.309 416.29 198.309 416.29 198.309C416.29 198.309 420.146 198.071 425.145 198.184C427.129 199.553 429.767 202.705 427.657 209.4L423.273 211.121L424.065 215.416C424.065 215.416 419.041 223.379 413.502 226.393C413.502 225.866 413.502 225.565 413.502 225.565C413.502 225.565 430.433 201.487 420.912 200.231C411.392 198.975 400.502 197.97 401.331 205.594C402.266 212.11 403.57 218.568 405.237 224.937V225.288C402.549 222.902 400.213 218.657 398.606 213.633L400.389 208.684L396.445 206.511C396.777 204.629 397.614 202.872 398.866 201.427C400.118 199.983 401.738 198.905 403.554 198.309Z" fill="#407BFF"/>
<path opacity="0.2" d="M403.554 198.309C409.834 198.309 416.29 198.309 416.29 198.309C416.29 198.309 420.146 198.071 425.145 198.184C427.129 199.553 429.767 202.705 427.657 209.4L423.273 211.121L424.065 215.416C424.065 215.416 419.041 223.379 413.502 226.393C413.502 225.866 413.502 225.565 413.502 225.565C413.502 225.565 430.433 201.487 420.912 200.231C411.392 198.975 400.502 197.97 401.331 205.594C402.266 212.11 403.57 218.568 405.237 224.937V225.288C402.549 222.902 400.213 218.657 398.606 213.633L400.389 208.684L396.445 206.511C396.777 204.629 397.614 202.872 398.866 201.427C400.118 199.983 401.738 198.905 403.554 198.309Z" fill="white"/>
<path d="M405.287 208.496C401.267 204.263 403.742 201.211 403.742 201.211C410.901 198.774 410.248 193.398 408.602 188.412L420.145 176.631C419.454 182.911 419.203 197.33 423.31 202.354V203.472C419.594 204.924 415.97 206.601 412.458 208.496H405.287Z" fill="#B97964"/>
<path opacity="0.1" d="M408.602 188.4L417.77 179.043L419.893 179.809C419.818 180.94 419.78 182.17 419.755 183.464C418.599 185.838 415.811 189.179 409.292 190.862C409.104 190.02 408.865 189.191 408.602 188.4Z" fill="black"/>
<path d="M426.023 166.206C423.222 176.882 422.255 181.454 415.736 185.925C405.889 192.645 393.404 186.893 392.94 175.601C392.525 165.44 397.147 149.702 408.564 147.492C411.077 146.998 413.675 147.153 416.112 147.941C418.549 148.73 420.744 150.127 422.492 152C424.239 153.873 425.48 156.16 426.098 158.646C426.715 161.131 426.69 163.733 426.023 166.206Z" fill="#B97964"/>
<path d="M400.662 168.957C399.487 170.817 398.063 172.507 396.43 173.981C396.804 174.401 397.269 174.732 397.788 174.95C398.308 175.167 398.869 175.265 399.432 175.237L400.662 168.957Z" fill="#A24E3F"/>
<path d="M412.045 165.025C412.119 165.022 412.192 165 412.256 164.96C412.32 164.921 412.372 164.866 412.409 164.8C412.445 164.735 412.464 164.661 412.464 164.586C412.464 164.511 412.445 164.438 412.409 164.372C411.996 163.67 411.422 163.076 410.734 162.639C410.046 162.202 409.264 161.935 408.452 161.86C408.337 161.86 408.225 161.904 408.141 161.984C408.057 162.063 408.007 162.172 408 162.287C407.997 162.402 408.038 162.513 408.116 162.598C408.193 162.682 408.3 162.733 408.415 162.74C409.089 162.813 409.736 163.046 410.301 163.419C410.867 163.793 411.336 164.296 411.668 164.887C411.715 164.939 411.774 164.978 411.839 165.002C411.905 165.026 411.975 165.034 412.045 165.025Z" fill="#263238"/>
<path d="M394.385 161.798C394.456 161.816 394.529 161.816 394.599 161.798C395.178 161.453 395.83 161.25 396.503 161.207C397.176 161.163 397.849 161.28 398.467 161.547C398.569 161.601 398.688 161.612 398.799 161.58C398.909 161.547 399.002 161.472 399.058 161.371C399.106 161.266 399.113 161.146 399.075 161.036C399.038 160.926 398.96 160.834 398.857 160.781C398.107 160.447 397.289 160.297 396.47 160.343C395.651 160.389 394.854 160.629 394.147 161.044C394.044 161.098 393.966 161.19 393.931 161.301C393.896 161.411 393.906 161.531 393.958 161.635C393.997 161.71 394.057 161.773 394.13 161.815C394.204 161.858 394.288 161.878 394.373 161.873L394.385 161.798Z" fill="#263238"/>
<path d="M403.906 178.1C403.392 178.102 402.88 178.06 402.373 177.975C402.304 177.959 402.244 177.918 402.204 177.86C402.164 177.802 402.149 177.73 402.16 177.661C402.164 177.626 402.176 177.592 402.194 177.562C402.211 177.532 402.235 177.505 402.263 177.484C402.291 177.463 402.323 177.448 402.357 177.439C402.391 177.431 402.427 177.429 402.461 177.434C403.573 177.647 404.718 177.598 405.808 177.293C406.897 176.988 407.901 176.434 408.741 175.676C408.793 175.638 408.856 175.618 408.92 175.621C408.984 175.624 409.045 175.65 409.092 175.693C409.14 175.736 409.171 175.794 409.18 175.857C409.189 175.921 409.176 175.985 409.143 176.04C407.729 177.378 405.852 178.116 403.906 178.1Z" fill="#263238"/>
<path d="M422.431 174.584C421.14 173.118 420.181 171.391 419.622 169.52C419.063 167.648 418.915 165.678 419.19 163.744C419.19 163.744 414.895 159.348 415.108 154.638C415.108 154.638 413.852 158.406 415.108 161.069C415.108 161.069 403.968 160.253 404.232 154.638C404.232 154.638 403.503 157.464 405.174 158.934C405.174 158.934 395.276 159.348 396.608 154.224C397.939 149.1 405.714 146.575 405.714 146.575C405.714 146.575 413.099 140.295 423.298 151.398C423.298 151.398 435.33 158.934 426.802 171.494L422.431 174.584Z" fill="#263238"/>
<path d="M426.889 175.249C426.398 176.185 425.727 177.014 424.915 177.689C424.102 178.363 423.164 178.87 422.154 179.181C419.453 179.997 418.047 177.598 418.75 175.011C419.378 172.687 421.551 169.459 424.302 169.773C424.897 169.856 425.463 170.085 425.947 170.441C426.432 170.797 426.82 171.268 427.077 171.811C427.334 172.355 427.451 172.954 427.418 173.554C427.386 174.154 427.204 174.737 426.889 175.249Z" fill="#B97964"/>
<path d="M408.676 167.437C408.588 168.354 408.023 169.045 407.42 168.994C406.817 168.944 406.415 168.14 406.515 167.211C406.616 166.281 407.181 165.591 407.771 165.653C408.362 165.716 408.776 166.507 408.676 167.437Z" fill="#2E353A"/>
<path d="M398.25 166.344C398.162 167.261 397.597 167.952 396.994 167.902C396.391 167.851 395.977 167.047 396.078 166.118C396.178 165.189 396.743 164.498 397.334 164.561C397.924 164.623 398.363 165.415 398.25 166.344Z" fill="#2E353A"/>
<path d="M397.601 164.636L395.453 163.77C395.453 163.77 396.408 165.616 397.601 164.636Z" fill="#2E353A"/>
<path d="M408.023 165.791L405.875 164.925C405.875 164.925 406.842 166.708 408.023 165.791Z" fill="#2E353A"/>
<path d="M421.5 184.18C422.192 184.179 422.87 183.977 423.449 183.599C424.028 183.22 424.485 182.681 424.763 182.047C425.041 181.413 425.129 180.712 425.016 180.029C424.903 179.347 424.593 178.711 424.125 178.201L423.661 178.616C424.119 179.111 424.393 179.749 424.437 180.423C424.481 181.096 424.291 181.764 423.901 182.315C423.51 182.865 422.942 183.264 422.291 183.445C421.641 183.625 420.948 183.577 420.33 183.307C419.711 183.037 419.204 182.563 418.894 181.963C418.584 181.364 418.489 180.676 418.627 180.015C418.764 179.354 419.125 178.761 419.648 178.334C420.171 177.908 420.825 177.675 421.5 177.674C421.933 177.659 422.363 177.745 422.756 177.925L423.02 177.347C422.56 177.148 422.064 177.045 421.563 177.046C420.617 177.046 419.71 177.422 419.041 178.091C418.372 178.76 417.996 179.667 417.996 180.613C417.996 181.559 418.372 182.466 419.041 183.135C419.71 183.804 420.617 184.18 421.563 184.18H421.5Z" fill="#407BFF"/>
<g opacity="0.6">
<path d="M421.5 184.18C422.192 184.179 422.87 183.977 423.449 183.599C424.028 183.22 424.485 182.681 424.763 182.047C425.041 181.413 425.129 180.712 425.016 180.029C424.903 179.347 424.593 178.711 424.125 178.201L423.661 178.616C424.119 179.111 424.393 179.749 424.437 180.423C424.481 181.096 424.291 181.764 423.901 182.315C423.51 182.865 422.942 183.264 422.291 183.445C421.641 183.625 420.948 183.577 420.33 183.307C419.711 183.037 419.204 182.563 418.894 181.963C418.584 181.364 418.489 180.676 418.627 180.015C418.764 179.354 419.125 178.761 419.648 178.334C420.171 177.908 420.825 177.675 421.5 177.674C421.933 177.659 422.363 177.745 422.756 177.925L423.02 177.347C422.56 177.148 422.064 177.045 421.563 177.046C420.617 177.046 419.71 177.422 419.041 178.091C418.372 178.76 417.996 179.667 417.996 180.613C417.996 181.559 418.372 182.466 419.041 183.135C419.71 183.804 420.617 184.18 421.563 184.18H421.5Z" fill="white"/>
</g>
<path d="M383.08 262.566L372.882 268.206L362.093 266.874C361.696 266.82 361.293 266.914 360.962 267.138L356.905 269.839C356.69 269.976 356.51 270.161 356.378 270.379L355.21 272.376C355.071 272.617 354.993 272.889 354.985 273.167C354.977 273.445 355.038 273.721 355.162 273.97C355.286 274.218 355.471 274.433 355.698 274.593C355.926 274.753 356.189 274.854 356.466 274.888C359.521 275.552 362.618 276.005 365.735 276.244C368.459 275.858 371.154 275.283 373.798 274.524L388.104 269.399L383.08 262.566Z" fill="#B97964"/>
<path d="M443.997 203.083C438.144 199.315 431.211 208.107 425.521 220.34L414.82 243.413L374.703 266.498L377.454 273.858C377.454 273.858 416.051 263.031 425.471 251.413C434.891 239.795 452.01 208.295 443.997 203.083Z" fill="#407BFF"/>
<path d="M276.684 270.768H360.472C362.135 270.734 363.728 270.093 364.951 268.967C366.175 267.84 366.945 266.305 367.116 264.651L373.22 194.905C373.304 194.127 373.221 193.341 372.978 192.597C372.735 191.853 372.337 191.169 371.809 190.591C371.282 190.013 370.638 189.553 369.92 189.243C369.202 188.932 368.426 188.777 367.644 188.789H283.856C282.191 188.817 280.595 189.456 279.37 190.584C278.146 191.711 277.377 193.249 277.212 194.905L271.107 264.651C271.022 265.43 271.103 266.217 271.345 266.962C271.588 267.707 271.986 268.391 272.513 268.97C273.041 269.548 273.686 270.008 274.405 270.318C275.124 270.628 275.901 270.781 276.684 270.768Z" fill="#407BFF"/>
<g opacity="0.4">
<path d="M276.684 270.768H360.472C362.135 270.734 363.728 270.093 364.951 268.967C366.175 267.84 366.945 266.305 367.116 264.651L373.22 194.905C373.304 194.127 373.221 193.341 372.978 192.597C372.735 191.853 372.337 191.169 371.809 190.591C371.282 190.013 370.638 189.553 369.92 189.243C369.202 188.932 368.426 188.777 367.644 188.789H283.856C282.191 188.817 280.595 189.456 279.37 190.584C278.146 191.711 277.377 193.249 277.212 194.905L271.107 264.651C271.022 265.43 271.103 266.217 271.345 266.962C271.588 267.707 271.986 268.391 272.513 268.97C273.041 269.548 273.686 270.008 274.405 270.318C275.124 270.628 275.901 270.781 276.684 270.768Z" fill="white"/>
</g>
<path d="M283.379 192.469C282.75 192.467 282.143 192.7 281.678 193.123C281.213 193.546 280.923 194.129 280.867 194.755L274.738 264.802C274.707 265.093 274.739 265.386 274.831 265.664C274.922 265.941 275.071 266.196 275.268 266.412C275.465 266.628 275.705 266.8 275.973 266.916C276.241 267.033 276.53 267.091 276.823 267.088H360.975C361.603 267.091 362.21 266.857 362.675 266.434C363.141 266.011 363.43 265.428 363.487 264.802L369.616 194.755C369.648 194.464 369.618 194.169 369.527 193.891C369.437 193.613 369.288 193.357 369.09 193.14C368.893 192.924 368.652 192.752 368.383 192.637C368.114 192.521 367.824 192.464 367.531 192.469H283.379Z" fill="#407BFF"/>
<path opacity="0.8" d="M283.379 192.469C282.75 192.467 282.143 192.7 281.678 193.123C281.213 193.546 280.923 194.129 280.867 194.755L274.738 264.802C274.707 265.093 274.739 265.386 274.831 265.664C274.922 265.941 275.071 266.196 275.268 266.412C275.465 266.628 275.705 266.8 275.973 266.916C276.241 267.033 276.53 267.091 276.823 267.088H360.975C361.603 267.091 362.21 266.857 362.675 266.434C363.141 266.011 363.43 265.428 363.487 264.802L369.616 194.755C369.648 194.464 369.618 194.169 369.527 193.891C369.437 193.613 369.288 193.357 369.09 193.14C368.893 192.924 368.652 192.752 368.383 192.637C368.114 192.521 367.824 192.464 367.531 192.469H283.379Z" fill="white"/>
<path d="M301.187 227.486L274.912 263.169L274.761 264.802C274.731 265.093 274.763 265.386 274.854 265.664C274.945 265.941 275.094 266.196 275.291 266.412C275.488 266.628 275.728 266.8 275.996 266.916C276.264 267.033 276.554 267.091 276.846 267.088H323.418L301.187 227.486Z" fill="#407BFF"/>
<path d="M364.088 257.48L343.842 216.032L309.93 267.151H360.923C361.552 267.154 362.159 266.921 362.624 266.497C363.089 266.074 363.379 265.492 363.435 264.866L364.088 257.48Z" fill="#407BFF"/>
<path opacity="0.2" d="M364.088 257.48L343.842 216.032L309.93 267.151H360.923C361.552 267.154 362.159 266.921 362.624 266.497C363.089 266.074 363.379 265.492 363.435 264.866L364.088 257.48Z" fill="white"/>
<path d="M329.887 209.99C329.722 211.61 328.968 213.113 327.769 214.214C326.57 215.316 325.009 215.94 323.381 215.969C322.616 215.982 321.856 215.832 321.152 215.529C320.449 215.227 319.817 214.778 319.301 214.212C318.784 213.647 318.393 212.978 318.155 212.25C317.917 211.522 317.836 210.752 317.918 209.99C318.083 208.37 318.837 206.867 320.036 205.766C321.235 204.664 322.796 204.04 324.424 204.012C325.19 203.998 325.95 204.148 326.653 204.451C327.357 204.754 327.988 205.203 328.505 205.768C329.021 206.334 329.412 207.002 329.65 207.73C329.889 208.458 329.97 209.229 329.887 209.99Z" fill="#407BFF"/>
</svg>
